<svg width="914" height="400" fill="none" xmlns="http://www.w3.org/2000/svg"><style>#CL0 {fill: #333;}@media (prefers-color-scheme: dark) {#CL0 {fill: #CCC;}}</style><path d="M427.629 206.424h-.924c-.252 0-.476-.196-.476-.504v-15.344c0-.812-.616-1.512-1.428-1.512h-2.268c-.7 0-1.26.56-1.26 1.26 0 .728.56 1.26 1.26 1.26h.672v14.056c0 2.352 1.372 3.584 3.556 3.584h.868c.728 0 1.316-.616 1.316-1.4 0-.784-.588-1.4-1.316-1.4Zm14.656-3.78c0-4.592-2.352-6.748-6.132-6.748s-6.132 2.156-6.132 6.748c0 4.564 2.352 6.72 6.132 6.72s6.132-2.156 6.132-6.72Zm-6.132 4.144c-2.016 0-3.08-1.4-3.08-4.144 0-2.772 1.064-4.172 3.08-4.172s3.08 1.4 3.08 4.172c0 2.744-1.064 4.144-3.08 4.144Zm18.643-8.932c.196-.168.476-.252.84-.252.7 0 1.26-.56 1.26-1.26s-.56-1.26-1.26-1.26c-1.344 0-2.268.616-2.8 1.288-.756-.308-1.652-.476-2.688-.476-3.444 0-5.488 1.82-5.488 4.788 0 .98.112 1.848.924 3.052-.756.448-.98 1.316-.98 1.876 0 .98.588 1.68 1.316 2.128-1.204.756-1.68 1.736-1.68 2.744 0 3.276 3.192 4.144 6.244 4.144 3.556 0 6.244-1.372 6.244-4.228 0-2.828-2.324-3.836-5.208-3.836h-2.604c-1.288 0-1.652-.476-1.652-.952 0-.196.084-.448.252-.588.728.28 1.652.448 2.632.448 3.444 0 5.488-1.82 5.488-4.788 0-1.12-.28-2.072-.84-2.828Zm-4.648.532c1.624 0 2.548 1.008 2.548 2.296 0 1.288-.924 2.296-2.548 2.296s-2.548-1.008-2.548-2.296c0-1.288.924-2.296 2.548-2.296Zm.364 13.664c-2.128 0-3.248-.504-3.248-1.568 0-.616.56-1.232 1.624-1.456h2.632c1.26 0 2.184.476 2.184 1.372 0 1.148-1.512 1.652-3.192 1.652Zm13.64-2.688c2.296 0 3.836-1.008 4.48-1.596.336-.308.476-.672.476-1.036 0-.756-.588-1.344-1.344-1.344-.252 0-.532.056-.84.28-.644.476-1.484 1.12-2.772 1.12-1.96 0-3.024-1.484-3.024-4.172 0-2.632 1.064-4.144 3.024-4.144 1.4 0 2.128.728 2.492 1.092.252.252.588.476 1.036.476.756 0 1.344-.588 1.344-1.344 0-.336-.084-.56-.308-.868-.476-.644-1.988-1.932-4.564-1.932-3.78 0-6.076 2.156-6.076 6.72s2.296 6.748 6.076 6.748Zm18.343-.364c.7 0 1.26-.56 1.26-1.26s-.56-1.26-1.26-1.26h-.672v-5.908c0-2.968-2.072-4.676-5.544-4.676-2.408 0-3.808.924-4.592 1.792-.252.28-.364.616-.364.924 0 .728.588 1.316 1.316 1.316.336 0 .56-.084.84-.28.7-.504 1.568-1.064 2.8-1.064 1.624 0 2.548.84 2.548 2.1v.504h-3.668c-2.436 0-4.536 1.344-4.536 3.948 0 2.52 1.82 4.228 4.564 4.228 1.68 0 2.912-.42 3.668-1.624 0 .7.616 1.26 1.372 1.26h2.268Zm-8.848-3.864c0-1.008.672-1.596 1.904-1.596h3.276v.784c0 1.568-1.372 2.52-2.856 2.52-1.568 0-2.324-.644-2.324-1.708Zm12.735-8.848h-.644c-.7 0-1.26.56-1.26 1.26s.56 1.26 1.26 1.26h.644v6.608c0 2.212 1.624 3.808 4.256 3.808.728 0 1.316-.588 1.316-1.316 0-.728-.588-1.316-1.316-1.316-.616 0-1.288-.364-1.288-1.008v-6.776h1.26c.7 0 1.26-.56 1.26-1.26s-.56-1.26-1.26-1.26h-1.26v-2.352c0-.812-.672-1.484-1.484-1.484-.812 0-1.484.672-1.484 1.484v2.352Z" id="CL0"/></svg>